<svg width="160" height="160" viewBox="0 0 160 160" xmlns="http://www.w3.org/2000/svg">
<g fill="none" stroke="#D1C7BD" stroke-width="1.2" stroke-linecap="round" stroke-linejoin="round" opacity="0.9">
  <circle cx="80" cy="80" r="22" />
  <path d="M80 34c-10 12-16 21-16 32 0 11 6 20 16 24 10-4 16-13 16-24 0-11-6-20-16-32z" />
  <path d="M46 54c4 7 6 14 6 20s-2 13-6 20c-7-3-12-9-14-16-2-7-1-14 3-19 5-2 8-4 11-5z" />
  <path d="M114 54c-4 7-6 14-6 20s2 13 6 20c7-3 12-9 14-16 2-7 1-14-3-19-5-2-8-4-11-5z" />
  <path d="M64 104c-3 9-3 17-1 24 3 7 8 13 17 18 9-5 14-11 17-18 2-7 2-15-1-24-12 4-20 4-32 0z" />
  <path d="M52 116c-8 3-13 7-17 12-4 5-6 11-7 17" />
  <path d="M108 116c8 3 13 7 17 12 4 5 6 11 7 17" />
</g>
</svg>
